<svg id="Слой_1" data-name="Слой 1" xmlns="http://www.w3.org/2000/svg" viewBox="0 0 92 92"><defs><style>.cls-1,.cls-3,.cls-4{fill:none;}.cls-1{stroke:#3f3f3f;stroke-linecap:round;stroke-linejoin:round;}.cls-2{fill:#c2c2c2;}.cls-3,.cls-4{stroke:#151515;}.cls-3{stroke-width:1.5px;}</style></defs><title>2</title><g id="Version-2"><g id="full-preview-1"><g id="growth-imac"><path id="Stroke-1" class="cls-1" d="M87.4,67.25A5.54,5.54,0,0,1,82,72.93H10a5.54,5.54,0,0,1-5.4-5.68V14.33A5.54,5.54,0,0,1,10,8.65H82a5.54,5.54,0,0,1,5.4,5.68Z"/><path id="Stroke-3" class="cls-1" d="M19.85,80.55H70"/><path id="Stroke-6" class="cls-1" d="M44.91,72.93v7.62"/><path id="Stroke-10" class="cls-1" d="M4.6,57.68H87.4"/><polyline id="Stroke-18" class="cls-1" points="16.59 47.87 42.12 23.9 59.88 40.58 75.42 25.99"/><g id="Oval-Copy-201"><circle id="path-1" class="cls-2" cx="16.59" cy="47.87" r="3.27"/><circle class="cls-3" cx="16.59" cy="47.87" r="2.45"/><circle id="path-1-2" data-name="path-1" class="cls-4" cx="16.59" cy="47.87" r="3.27"/></g><g id="Oval-Copy-205"><circle id="path-2" class="cls-2" cx="42.73" cy="23.9" r="3.27"/><circle class="cls-3" cx="42.73" cy="23.9" r="2.45"/><circle id="path-2-2" data-name="path-2" class="cls-4" cx="42.73" cy="23.9" r="3.27"/></g><g id="Oval-Copy-206"><circle id="path-3" class="cls-2" cx="60.16" cy="40.25" r="3.27"/><circle class="cls-3" cx="60.16" cy="40.25" r="2.45"/><circle id="path-3-2" data-name="path-3" class="cls-4" cx="60.16" cy="40.25" r="3.27"/></g><g id="Oval-Copy-207"><circle id="path-4" class="cls-2" cx="76.5" cy="24.99" r="3.27"/><circle class="cls-3" cx="76.5" cy="24.99" r="2.45"/><circle id="path-4-2" data-name="path-4" class="cls-4" cx="76.5" cy="24.99" r="3.27"/></g><g id="Oval-Copy-208"><circle id="path-5" class="cls-2" cx="87.4" cy="57.68" r="3.27"/><circle class="cls-3" cx="87.4" cy="57.68" r="2.45"/><circle id="path-5-2" data-name="path-5" class="cls-4" cx="87.4" cy="57.68" r="3.27"/></g><g id="Oval-Copy-209"><circle id="path-6" class="cls-2" cx="4.6" cy="57.68" r="3.27"/><circle class="cls-3" cx="4.6" cy="57.68" r="2.45"/><circle id="path-6-2" data-name="path-6" class="cls-4" cx="4.6" cy="57.68" r="3.27"/></g><g id="Oval-Copy-210"><circle id="path-7" class="cls-2" cx="44.91" cy="71.84" r="3.27"/><circle class="cls-3" cx="44.91" cy="71.84" r="2.45"/><circle id="path-7-2" data-name="path-7" class="cls-4" cx="44.91" cy="71.84" r="3.27"/></g><g id="Oval-Copy-211"><circle id="path-8" class="cls-2" cx="18.76" cy="80.55" r="3.27"/><circle class="cls-3" cx="18.76" cy="80.55" r="2.45"/><circle id="path-8-2" data-name="path-8" class="cls-4" cx="18.76" cy="80.55" r="3.27"/></g><g id="Oval-Copy-212"><circle id="path-9" class="cls-2" cx="71.06" cy="80.55" r="3.27"/><circle class="cls-3" cx="71.06" cy="80.55" r="2.45"/><circle id="path-9-2" data-name="path-9" class="cls-4" cx="71.06" cy="80.55" r="3.27"/></g></g></g></g></svg>