<svg id="Слой_1" data-name="Слой 1" xmlns="http://www.w3.org/2000/svg" viewBox="0 0 92 92"><defs><style>.cls-1,.cls-3,.cls-4{fill:none;}.cls-1{stroke:#3f3f3f;stroke-linecap:round;stroke-linejoin:round;}.cls-2{fill:#c2c2c2;}.cls-3,.cls-4{stroke:#151515;}.cls-3{stroke-width:1.5px;}</style></defs><title>3</title><g id="Version-2"><g id="full-preview-6"><g id="premium-content"><g id="Group-4"><path id="Path-250" class="cls-1" d="M2.57,46.77H19.7a4,4,0,0,1,4.08,4.16V70.09a4.27,4.27,0,0,1-4.08,4.55H2.85"/><path id="Path-252" class="cls-1" d="M43.57,67c.28-1.06,1-3.79,4.07-3.79H62.17a4,4,0,0,0,3.75-3.64c0-2-1-4-3.75-4H51a12.82,12.82,0,0,1-5.23-1.4c-2.58-1.11-5-1.92-7.45-3a10.89,10.89,0,0,0-5.41-.89h-9"/><circle id="Oval-22" class="cls-1" cx="17.38" cy="68.04" r="1.93"/><circle id="Oval-22-Copy-8" class="cls-1" cx="51.53" cy="37.75" r="1.93"/><circle id="Oval-22-Copy-8-2" data-name="Oval-22-Copy-8" class="cls-1" cx="59.26" cy="37.75" r="1.93"/><circle id="Oval-22-Copy-2" class="cls-1" cx="10.94" cy="68.04" r="1.93"/><path id="Path-253" class="cls-1" d="M55.51,42.76H70.82V37.55c0-.87,7.65-26.34,8-27.51s-.49-.66-1.06-.33L64.61,17"/><path id="Path-254" class="cls-1" d="M78.67,9.52q-11.48,15-12,15.59c-.49.55-.79.12-1.3-.55S56.53,10.62,56.33,10.2a1,1,0,0,0-.93-.68"/><path id="Path-255" class="cls-1" d="M70.92,37.6H64.19"/><path id="Path-253-2" data-name="Path-253" class="cls-1" d="M55.53,42.76H40V37.55c0-.87-7.66-26.34-8-27.51s.49-.66,1.06-.33Q33.63,10,46.19,17"/><path id="Path-254-2" data-name="Path-254" class="cls-1" d="M32.12,9.52q11.49,15,12,15.59c.49.55.78.12,1.29-.55s8.88-13.94,9.08-14.36a1,1,0,0,1,.93-.68"/><path id="Path-255-2" data-name="Path-255" class="cls-1" d="M39.88,37.6h6.67"/><circle id="Oval-23" class="cls-1" cx="55.4" cy="27.44" r="5.48"/><path id="Path-251" class="cls-1" d="M24,70.64h7.17c2,0,16.86,6.34,18.93,7.23a7.82,7.82,0,0,0,6.79-.11c2.29-1.18,28.53-14.67,30.67-15.63s2.34-3.35,1.32-5.36-3.57-1.91-5.41-1.05q-1.84.86-18.44,6.41"/></g><g id="Oval-Copy-505"><circle id="path-1" class="cls-2" cx="55.2" cy="27.4" r="3.13"/><circle class="cls-3" cx="55.2" cy="27.4" r="2.35"/><circle id="path-1-2" data-name="path-1" class="cls-4" cx="55.2" cy="27.4" r="3.13"/></g><g id="Oval-Copy-506"><circle id="path-2" class="cls-2" cx="45.3" cy="53.97" r="3.13"/><circle class="cls-3" cx="45.3" cy="53.97" r="2.35"/><circle id="path-2-2" data-name="path-2" class="cls-4" cx="45.3" cy="53.97" r="3.13"/></g><g id="Oval-Copy-507"><circle id="path-3" class="cls-2" cx="79.69" cy="57.1" r="3.13"/><circle class="cls-3" cx="79.69" cy="57.1" r="2.35"/><circle id="path-3-2" data-name="path-3" class="cls-4" cx="79.69" cy="57.1" r="3.13"/></g><g id="Oval-Copy-508"><circle id="path-4" class="cls-2" cx="14.03" cy="46.68" r="3.13"/><circle class="cls-3" cx="14.03" cy="46.68" r="2.35"/><circle id="path-4-2" data-name="path-4" class="cls-4" cx="14.03" cy="46.68" r="3.13"/></g></g></g></g></svg>