<svg id="Слой_1" data-name="Слой 1" xmlns="http://www.w3.org/2000/svg" viewBox="0 0 92 92"><defs><style>.cls-1,.cls-3,.cls-4{fill:none;}.cls-1{stroke:#3f3f3f;stroke-linecap:round;stroke-linejoin:round;}.cls-2{fill:#c2c2c2;}.cls-3,.cls-4{stroke:#151515;}.cls-3{stroke-width:1.5px;}</style></defs><title>4</title><g id="Version-2"><g id="full-preview-6"><g id="smart-glasses"><path id="Path-228" class="cls-1" d="M5.13,33.4c-1.21.32-3.33.67-4,2.32s-.58,6.44,0,9.05,4.31,5.46,5.19,5.64"/><ellipse id="Oval-21" class="cls-1" cx="4.82" cy="38.19" rx="2.1" ry="2.29"/><path id="Path-233" class="cls-1" d="M.87,42.53l4.67-.18,8.67-.8V34.34l-9.1,0a16.8,16.8,0,0,0-3.43.51"/><path id="Path-234" class="cls-1" d="M14.27,34.36c2-.17,12.33.11,12.89.19s1.11.16,1.11.8v4.33c0,.56-.32.71-1.11.79L14.27,41.54"/><path id="Path-229" class="cls-1" d="M46.52,40.51c-6.18,0-5.11,15.39-11.46,17.36s-16.24,1.2-18,1.08-7.68-.72-9.83-6.1c-1-2.59-1.57-6.6-1.86-10.43M5,34.11a1.49,1.49,0,0,1,0-.52c.1-.19.57-.39,1.4-.57a42.33,42.33,0,0,1,4.8-.22,131,131,0,0,1,21.69,1.57c5.72,1,10.12,2.28,13.59,2.28"/><path id="Path-237" class="cls-1" d="M40.47,49.43c-.08.41,0,1.46.52,1.66s1.2.15,2.09-2.65.1-3.64-.23-3.62-.77-.3-1.43,1.72"/><path id="Path-229-2" data-name="Path-229" class="cls-1" d="M46.52,40.51c6.53,0,5.28,15.39,11.62,17.36s16.24,1.2,18,1.08,7.68-.72,9.83-6.1c1-2.59,1.58-6.88,1.86-10.71.17-3.18.26-5,.26-5.57,1.61.57,2.93,1.06,2,2.5A11.44,11.44,0,0,1,88,41.31m2.32-2.71c1-.11,1.29-3,.89-3.34a9.32,9.32,0,0,0-4.45-2A42.65,42.65,0,0,0,82,33a133.05,133.05,0,0,0-21.68,1.38c-5.73,1-10.3,2.28-13.77,2.28"/><path id="Path-237-2" data-name="Path-237" class="cls-1" d="M52.74,49.43c.08.41,0,1.46-.53,1.66s-1.2.15-2.09-2.65-.1-3.64.23-3.62.77-.3,1.43,1.72"/><polygon id="Triangle" class="cls-1" points="77.76 45.57 64.99 51.38 64.99 39.77 77.76 45.57"/><g id="Oval-Copy-121"><circle id="path-1" class="cls-2" cx="77.57" cy="45.57" r="2.9"/><circle class="cls-3" cx="77.57" cy="45.57" r="2.18"/><circle id="path-1-2" data-name="path-1" class="cls-4" cx="77.57" cy="45.57" r="2.9"/></g><g id="Oval-Copy-122"><circle id="path-2" class="cls-2" cx="64.99" cy="51.38" r="2.9"/><circle class="cls-3" cx="64.99" cy="51.38" r="2.18"/><circle id="path-2-2" data-name="path-2" class="cls-4" cx="64.99" cy="51.38" r="2.9"/></g><g id="Oval-Copy-123"><circle id="path-3" class="cls-2" cx="64.99" cy="39.77" r="2.9"/><circle class="cls-3" cx="64.99" cy="39.77" r="2.18"/><circle id="path-3-2" data-name="path-3" class="cls-4" cx="64.99" cy="39.77" r="2.9"/></g><g id="Oval-Copy-125"><circle id="path-4" class="cls-2" cx="4.99" cy="38.31" r="2.9"/><circle class="cls-3" cx="4.99" cy="38.31" r="2.18"/><circle id="path-4-2" data-name="path-4" class="cls-4" cx="4.99" cy="38.31" r="2.9"/></g></g></g></g></svg>