<?xml-stylesheet type="text/css" href="style.css"?><svg xmlns="http://www.w3.org/2000/svg" xmlns:xlink="http://www.w3.org/1999/xlink" display="none"> <symbol id="development" viewBox="0 0 92 92"> <g id="st0"> <path d="M2.6 46.8h17.1c2.2 0 4 1.7 4.1 3.9 0 0.1 0 0.2 0 0.2v19.2c0.2 2.4-1.6 4.4-4 4.5 0 0-0.1 0-0.1 0H2.8"/> <path d="M43.6 67c0.3-1.1 1-3.8 4.1-3.8h14.5c2-0.1 3.6-1.7 3.8-3.6 0-2-1-4-3.8-4H51c-1.8-0.1-3.6-0.6-5.2-1.4 -2.6-1.1-5-1.9-7.5-3 -1.7-0.8-3.6-1.1-5.4-0.9h-9"/> <circle cx="17.4" cy="68" r="1.9"/> <circle cx="51.5" cy="37.8" r="1.9"/> <circle cx="59.3" cy="37.8" r="1.9"/> <circle cx="10.9" cy="68" r="1.9"/> <path d="M55.5 42.8h15.3v-5.2c0-0.9 7.7-26.3 8-27.5s-0.5-0.7-1.1-0.3L64.6 17"/> <path d="M78.7 9.5c-7.7 10-11.7 15.2-12 15.6 -0.5 0.5-0.8 0.1-1.3-0.5s-8.8-13.9-9-14.4c-0.1-0.4-0.5-0.7-0.9-0.7"/> <path d="M70.9 37.6h-6.7"/> <path d="M55.5 42.8H40v-5.2c0-0.9-7.7-26.3-8-27.5s0.5-0.7 1.1-0.3c0.4 0.2 4.8 2.6 13.1 7.3"/> <path d="M32.1 9.5c7.7 10 11.7 15.2 12 15.6 0.5 0.5 0.8 0.1 1.3-0.5s8.9-13.9 9.1-14.4c0.1-0.4 0.5-0.7 0.9-0.7"/> <path d="M39.9 37.6h6.7"/> <circle cx="55.4" cy="27.4" r="5.5"/> <path d="M24 70.6h7.2c2 0 16.9 6.3 18.9 7.2 2.2 1 4.7 1 6.8-0.1 2.3-1.2 28.5-14.7 30.7-15.6s2.3-3.3 1.3-5.4 -3.6-1.9-5.4-1c-1.2 0.6-7.4 2.7-18.4 6.4"/> </g> <g fill="#C2C2C2" class="st1"> <circle cx="14" cy="46.7" r="3.1"/> <circle cx="79.7" cy="57.1" r="3.1"/> <circle cx="45.3" cy="54" r="3.1"/> <circle cx="55.2" cy="27.4" r="3.1"/> </g> <g fill="none" stroke="#151515" stroke-width="1.5" class="st2"> <circle cx="14" cy="46.7" r="2.3"/> <circle cx="79.7" cy="57.1" r="2.3"/> <circle cx="45.3" cy="54" r="2.3"/> <circle cx="55.2" cy="27.4" r="2.3"/> </g> <g fill="none" stroke="#151515" class="st3"> <circle cx="14" cy="46.7" r="3.1"/> <circle cx="79.7" cy="57.1" r="3.1"/> <circle cx="45.3" cy="54" r="3.1"/> <circle cx="55.2" cy="27.4" r="3.1"/> </g> </symbol> <symbol id="promotion" viewBox="0 0 92 92"> <g id="st0"> <path d="M87.4 67.3c0.1 3.1-2.3 5.6-5.4 5.7 0 0 0 0 0 0H10c-3.1-0.1-5.5-2.6-5.4-5.7 0 0 0 0 0 0V14.3C4.5 11.3 6.9 8.7 10 8.7c0 0 0 0 0 0h72c3.1 0.1 5.5 2.6 5.4 5.7 0 0 0 0 0 0V67.3z"/> <path d="M19.9 80.6H70"/> <path d="M44.9 72.9v7.6"/> <path d="M4.6 57.7h82.8"/> <polyline points="16.6 47.9 42.1 23.9 59.9 40.6 75.4 26 "/> </g> <g id="st1" fill="#C2C2C2"> <circle cx="71.1" cy="80.6" r="3.3"/> <circle cx="18.8" cy="80.6" r="3.3"/> <circle cx="44.9" cy="71.8" r="3.3"/> <circle cx="4.6" cy="57.7" r="3.3"/> <circle cx="87.4" cy="57.7" r="3.3"/> <circle cx="76.5" cy="25" r="3.3"/> <circle cx="60.2" cy="40.3" r="3.3"/> <circle cx="42.7" cy="23.9" r="3.3"/> <circle cx="16.6" cy="47.9" r="3.3"/> </g> <g id="st2" fill="none" stroke="#151515" stroke-width="1.5"> <circle cx="71.1" cy="80.6" r="2.4"/> <circle cx="18.8" cy="80.6" r="2.4"/> <circle cx="44.9" cy="71.8" r="2.4"/> <circle cx="4.6" cy="57.7" r="2.5"/> <circle cx="87.4" cy="57.7" r="2.4"/> <circle cx="76.5" cy="25" r="2.4"/> <circle cx="60.2" cy="40.3" r="2.5"/> <circle cx="42.7" cy="23.9" r="2.5"/> <circle cx="16.6" cy="47.9" r="2.5"/> </g> <g id="st3" fill="none" stroke="#151515"> <circle cx="71.1" cy="80.6" r="3.3"/> <circle cx="18.8" cy="80.6" r="3.3"/> <circle cx="44.9" cy="71.8" r="3.3"/> <circle cx="4.6" cy="57.7" r="3.3"/> <circle cx="87.4" cy="57.7" r="3.3"/> <circle cx="76.5" cy="25" r="3.3"/> <circle cx="60.2" cy="40.3" r="3.3"/> <circle cx="42.7" cy="23.9" r="3.3"/> <circle cx="16.6" cy="47.9" r="3.3"/> </g> </symbol> <symbol id="optimization" viewBox="0 0 92 92"> <g id="st0"> <path d="M59 7.6C54.9 5.4 50.4 4.1 45.7 4c-5.7-0.1-11.2 1.3-16.2 4 -12.3 6.7-18.4 17.6-18.2 32.8C7.2 52.4 5.7 59.2 6.9 61.1c1.2 1.9 3.7 2.4 7.4 1.6v7.7c0.1 5.5 2.9 8.3 8.5 8.3 8.4 0 7.9 0.1 9 0.1 3.6 0 5.6 1.6 6.6 6.4 0.4 1.3 1.4 2.3 2.7 2.7h28.7L66 64.8c-0.7-4.5 0.1-8.3 2.5-11.1 2.4-3 5.9-10.2 6-18.9"/> <circle cx="45.5" cy="19" r="4"/> <circle cx="45.5" cy="32" r="4"/> <circle cx="58.5" cy="19" r="4"/> <circle cx="58.5" cy="32" r="4"/> <circle cx="71.5" cy="19" r="4"/> <circle cx="71.5" cy="32" r="4"/> <path d="M45.6 14.9V4.2"/> <path d="M41.6 32H27.5"/> <path d="M82.2 32h-6.7"/> <path d="M82 19h-6.5"/> <path d="M58.9 14.9V8.1"/> <path d="M58.5 36.3v39.3c0 1.2-0.1 2.1-1.5 2.1h-2.4c-1 0-1.8 0.8-1.9 1.8v8.4"/> <path d="M41.7 18.9h-6c-1.1 0.1-2 0.8-2.2 1.9v3.9"/> </g> <g id="st1" fill="#C2C2C2"> <circle cx="82.5" cy="19" r="3"/> <circle cx="59" cy="8" r="3"/> <circle cx="52.5" cy="88" r="3"/> <circle cx="45.5" cy="4" r="3"/> <circle cx="82.5" cy="32" r="3"/> <circle cx="27.5" cy="32" r="3"/> <circle cx="33.5" cy="25" r="3"/> </g> <g id="st2" fill="none" stroke="#151515" stroke-width="1.5"> <circle cx="82.5" cy="19" r="2.3"/> <circle cx="59" cy="8" r="2.3"/> <circle cx="52.5" cy="88" r="2.3"/> <circle cx="45.5" cy="4" r="2.3"/> <circle cx="82.5" cy="32" r="2.3"/> <circle cx="27.5" cy="32" r="2.3"/> <circle cx="33.5" cy="25" r="2.3"/> </g> <g id="st3" fill="none" stroke="#151515"> <circle cx="82.5" cy="19" r="3"/> <circle cx="59" cy="8" r="3"/> <circle cx="52.5" cy="88" r="3"/> <circle cx="45.5" cy="4" r="3"/> <circle cx="82.5" cy="32" r="3"/> <circle cx="27.5" cy="32" r="3"/> <circle cx="33.5" cy="25" r="3"/> </g> </symbol> <symbol id="accompaniment" viewBox="0 0 80 71"> <g id="st0"> <path d="M40 70.5c21.2 0 32.1 0 32.6 0 0.7 0 1.3-0.2 2-0.9s3-2.9 3.5-3.3 0.6-1.1 0.6-1.4c0-0.3 0-0.9 0-1.2 0-0.3-0.3-0.6-0.9-0.6s-28.1 0-28.5 0c-0.4 0-0.8 0.4-1 0.6 -0.2 0.2-1.5 1.3-1.7 1.5 -0.2 0.2-0.4 0.3-0.8 0.3 -0.3 0-2.1 0-5.6 0"/> <path d="M73.6 63c0-25.2 0-38.8 0-40.5 0-2.6-1.7-4.5-4.1-4.5 -1.6 0-7.1 0-16.5 0"/> <path d="M39.6 70.5c-21.2 0-32.1 0-32.6 0 -0.7 0-1.3-0.2-2-0.9s-3-2.9-3.5-3.3S1 65.2 1 64.9c0-0.3 0-0.9 0-1.2C1 63.3 1.3 63 1.9 63s28.1 0 28.5 0c0.4 0 0.8 0.4 1 0.6 0.2 0.2 1.5 1.3 1.7 1.5 0.2 0.2 0.4 0.3 0.8 0.3 0.3 0 2.1 0 5.6 0"/> <path d="M6 63c0-25.2 0-38.8 0-40.5 0-2.6 1.7-4.5 4.1-4.5 1.6 0 7.1 0 16.6 0"/> <path d="M50.7 23c10.8 0 16.6 0 17.3 0 1 0 1.3 0.7 1.3 1.4s0 32.9 0 33.5c0 0.6-0.4 1.1-1.1 1.1 -0.4 0-9.8 0-28.1 0"/> <path d="M29.5 23c-10.8 0-16.5 0-17.2 0 -1 0-1.3 0.7-1.3 1.4s0 32.9 0 33.5c0 0.6 0.4 1.1 1.1 1.1 0.4 0 9.7 0 27.7 0"/> <circle cx="40" cy="14.4" r="13.4"/> <path d="M48.6 25.4c4.6 2.8 12.1 10 12.1 23.5"/> <path d="M60.2 49.4c-8.3 6.9-31.4 5.8-40 1.5 -3-1.5 0.8-20.8 11.2-25.5"/> </g> <g id="st1" fill="#C2C2C2"> <circle cx="40" cy="66" r="3"/> <circle cx="69" cy="42" r="3"/> <circle cx="11" cy="42" r="3"/> <circle cx="32" cy="25" r="3"/> <circle cx="48" cy="25" r="3"/> </g> <g id="st2" fill="none" stroke="#151515" stroke-width="1.5"> <circle cx="40" cy="66" r="2.3"/> <circle cx="69" cy="42" r="2.3"/> <circle cx="11" cy="42" r="2.3"/> <circle cx="32" cy="25" r="2.3"/> <circle cx="48" cy="25" r="2.3"/> </g> <g id="st3" fill="none" stroke="#151515"> <circle cx="40" cy="66" r="3"/> <circle cx="69" cy="42" r="3"/> <circle cx="11" cy="42" r="3"/> <circle cx="32" cy="25" r="3"/> <circle cx="48" cy="25" r="3"/> </g> </symbol> <symbol id="vk" viewBox="0 0 304.4 304.4"> <path d="M261.9 175.6c10.1 9.9 20.8 19.1 29.8 30 4 4.8 7.8 9.8 10.7 15.4 4.1 8 0.4 16.7-6.7 17.2l-44.3 0c-11.4 0.9-20.6-3.7-28.2-11.5 -6.1-6.3-11.8-12.9-17.7-19.4 -2.4-2.6-5-5.1-8-7.1 -6.1-3.9-11.3-2.7-14.8 3.6 -3.5 6.4-4.3 13.5-4.7 20.7 -0.5 10.4-3.6 13.2-14.1 13.7 -22.4 1.1-43.7-2.3-63.4-13.6 -17.4-10-30.9-24-42.7-40C34.8 153.5 17.3 119.4 1.5 84.4 -2 76.5 0.6 72.2 9.3 72.1c14.5-0.3 28.9-0.3 43.4 0 5.9 0.1 9.8 3.5 12 9 7.8 19.2 17.4 37.6 29.4 54.5 3.2 4.5 6.5 9 11.1 12.2 5.1 3.5 9.1 2.4 11.5-3.4 1.5-3.6 2.2-7.5 2.6-11.4 1.1-13.4 1.3-26.7-0.7-40.1 -1.2-8.3-5.9-13.7-14.2-15.3 -4.2-0.8-3.6-2.4-1.6-4.8 3.6-4.2 6.9-6.8 13.6-6.8h50.1c7.9 1.6 9.6 5.1 10.7 13l0 55.7c-0.1 3.1 1.5 12.2 7.1 14.2 4.4 1.4 7.4-2.1 10-4.9 12-12.7 20.6-27.8 28.2-43.4 3.4-6.9 6.3-14 9.1-21.1 2.1-5.3 5.4-7.9 11.3-7.8l48.2 0c1.4 0 2.9 0 4.3 0.3 8.1 1.4 10.4 4.9 7.8 12.8 -4 12.5-11.6 22.8-19.2 33.3 -8 11.1-16.6 21.9-24.6 33.1C252.3 161.5 252.8 166.7 261.9 175.6L261.9 175.6zM261.9 175.6"/> </symbol> <symbol id="twitter" viewBox="0 0 612 612"> <path fill="#010002" d="M612 116.3c-22.5 10-46.7 16.8-72.1 19.8 25.9-15.5 45.8-40.2 55.2-69.4 -24.3 14.4-51.2 24.8-79.8 30.5 -22.9-24.4-55.5-39.7-91.6-39.7 -69.3 0-125.6 56.2-125.6 125.5 0 9.8 1.1 19.4 3.3 28.6C197.1 206.3 104.6 156.3 42.6 80.4c-10.8 18.5-17 40.1-17 63.1 0 43.6 22.2 82 55.8 104.5 -20.6-0.7-39.9-6.3-56.9-15.8v1.6c0 60.8 43.3 111.6 100.7 123.1 -10.5 2.8-21.6 4.4-33.1 4.4 -8.1 0-15.9-0.8-23.6-2.3 16 49.9 62.3 86.2 117.3 87.2 -42.9 33.7-97.1 53.7-155.9 53.7 -10.1 0-20.1-0.6-29.9-1.7 55.6 35.7 121.5 56.5 192.4 56.5 230.9 0 357.2-191.3 357.2-357.2l-0.4-16.3C573.9 163.5 595.2 141.4 612 116.3z"/> </symbol> <symbol id="instagram" viewBox="0 0 512 512"> <path d="M352 0H160C71.6 0 0 71.6 0 160v192c0 88.4 71.6 160 160 160h192c88.4 0 160-71.6 160-160V160C512 71.6 440.4 0 352 0zM464 352c0 61.8-50.2 112-112 112H160c-61.8 0-112-50.2-112-112V160C48 98.2 98.2 48 160 48h192c61.8 0 112 50.2 112 112V352z"/> <path d="M256 128c-70.7 0-128 57.3-128 128s57.3 128 128 128 128-57.3 128-128S326.7 128 256 128zM256 336c-44.1 0-80-35.9-80-80 0-44.1 35.9-80 80-80s80 35.9 80 80C336 300.1 300.1 336 256 336z"/> <circle cx="393.6" cy="118.4" r="17.1"/> </symbol> <symbol id="facebook" viewBox="0 0 96.1 96.1"> <path d="M72.1 0L59.6 0C45.6 0 36.6 9.3 36.6 23.7v10.9H24c-1.1 0-2 0.9-2 2v15.8c0 1.1 0.9 2 2 2h12.5v39.9c0 1.1 0.9 2 2 2h16.4c1.1 0 2-0.9 2-2V54.3h14.7c1.1 0 2-0.9 2-2l0-15.8c0-0.5-0.2-1-0.6-1.4 -0.4-0.4-0.9-0.6-1.4-0.6H56.8v-9.2c0-4.4 1.1-6.7 6.8-6.7l8.4 0c1.1 0 2-0.9 2-2V2C74 0.9 73.2 0 72.1 0z"/> </symbol> <symbol id="google" viewBox="0 0 512 512"> <polygon points="448 224 448 160 416 160 416 224 352 224 352 256 416 256 416 320 448 320 448 256 512 256 512 224 "/> <path d="M160 224v64h90.5c-13.2 37.2-48.8 64-90.5 64 -52.9 0-96-43.1-96-96 0-52.9 43.1-96 96-96 22.9 0 45 8.2 62.2 23.2l42-48.3C235.4 109.8 198.4 96 160 96 71.8 96 0 167.8 0 256s71.8 160 160 160 160-71.8 160-160v-32H160z"/> </symbol> <symbol id="youtube" viewBox="0 0 90 90"> <path d="M70.9 65.8H66l0-2.9c0-1.3 1-2.3 2.3-2.3h0.3c1.3 0 2.3 1 2.3 2.3L70.9 65.8zM52.4 59.7c-1.3 0-2.3 0.8-2.3 1.9V75.5c0 1 1 1.9 2.3 1.9 1.3 0 2.3-0.8 2.3-1.9V61.6C54.7 60.5 53.7 59.7 52.4 59.7zM82.5 51.9v26.5C82.5 84.8 77 90 70.2 90H19.8C13 90 7.5 84.8 7.5 78.4V51.9c0-6.4 5.5-11.6 12.3-11.6H70.2C77 40.3 82.5 45.5 82.5 51.9zM23.1 81.3l0-28 6.3 0v-4.1l-16.7 0v4.1l5.2 0v28H23.1zM41.9 57.5h-5.2v14.9c0 2.2 0.1 3.2 0 3.6 -0.4 1.2-2.3 2.4-3.1 0.1 -0.1-0.4 0-1.6 0-3.6l0-15h-5.2l0 14.8c0 2.3-0.1 4 0 4.7 0.1 1.4 0.1 2.9 1.3 3.8 2.3 1.7 6.8-0.3 8-2.7l0 3.1 4.2 0L41.9 57.5 41.9 57.5zM58.6 74.6L58.6 62.2c0-4.7-3.5-7.6-8.4-3.7l0-9.2 -5.2 0 0 31.9 4.3-0.1 0.4-2C55.1 84.1 58.6 80.6 58.6 74.6zM74.9 73l-3.9 0c0 0.2 0 0.3 0 0.5v2.2c0 1.2-1 2.1-2.1 2.1h-0.8c-1.2 0-2.1-1-2.1-2.1V75.5v-2.4 -3.1h9v-3.4c0-2.5-0.1-4.9-0.3-6.3 -0.6-4.5-6.9-5.2-10.1-2.9 -1 0.7-1.7 1.7-2.2 2.9 -0.4 1.3-0.7 3-0.7 5.3v7.4C61.7 85.3 76.7 83.6 74.9 73zM54.8 32.7c0.3 0.7 0.7 1.2 1.3 1.6 0.6 0.4 1.3 0.6 2.1 0.6 0.8 0 1.4-0.2 2-0.6 0.6-0.4 1.1-1 1.5-1.9l-0.1 2h5.8V9.7H62.8v19.2c0 1-0.9 1.9-1.9 1.9 -1 0-1.9-0.9-1.9-1.9V9.7h-4.8v16.7c0 2.1 0 3.5 0.1 4.3C54.4 31.4 54.6 32.1 54.8 32.7zM37.2 18.8c0-2.4 0.2-4.2 0.6-5.6 0.4-1.3 1.1-2.4 2.1-3.2 1-0.8 2.3-1.2 3.9-1.2 1.3 0 2.5 0.3 3.5 0.8 1 0.5 1.7 1.2 2.2 2 0.5 0.8 0.9 1.7 1.1 2.6 0.2 0.9 0.3 2.2 0.3 4v6.3c0 2.3-0.1 4-0.3 5.1 -0.2 1.1-0.6 2.1-1.1 3 -0.6 0.9-1.3 1.6-2.2 2.1 -0.9 0.4-2 0.7-3.2 0.7 -1.3 0-2.4-0.2-3.4-0.6 -0.9-0.4-1.6-1-2.1-1.7 -0.5-0.8-0.9-1.7-1.1-2.8 -0.2-1.1-0.3-2.7-0.3-4.9L37.2 18.8 37.2 18.8zM41.8 28.6c0 1.4 1 2.5 2.3 2.5 1.3 0 2.3-1.1 2.3-2.5V15.4c0-1.4-1-2.5-2.3-2.5 -1.3 0-2.3 1.1-2.3 2.5V28.6zM25.7 35.2h5.5l0-19 6.5-16.2h-6l-3.4 12.1L24.7 0h-5.9l6.9 16.3L25.7 35.2z"/> </symbol> <symbol id="blog" viewBox="0 0 576 512"> <path d="M549.655 124.083c-6.281-23.65-24.787-42.276-48.284-48.597C458.781 64 288 64 288 64S117.22 64 74.629 75.486c-23.497 6.322-42.003 24.947-48.284 48.597-11.412 42.867-11.412 132.305-11.412 132.305s0 89.438 11.412 132.305c6.281 23.65 24.787 41.5 48.284 47.821C117.22 448 288 448 288 448s170.78 0 213.371-11.486c23.497-6.321 42.003-24.171 48.284-47.821 11.412-42.867 11.412-132.305 11.412-132.305s0-89.438-11.412-132.305zm-317.51 213.508V175.185l142.739 81.205-142.739 81.201z"/> </symbol></svg>