<svg xmlns="http://www.w3.org/2000/svg" viewBox="0 0 143 206"><style type="text/css">  
	.st0{fill:none;stroke:#000000;stroke-width:2;stroke-miterlimit:10;}
	.st1{stroke:#000000;stroke-width:2;stroke-linecap:round;stroke-linejoin:round;stroke-miterlimit:10;}
</style><path class="st0" d="M72 203c-27.9-7.1-69.2-52.9-67.1-85.8C7.8 99 27.8 73 29.1 63.5 16.2 40.3 33.8 8.2 43.6 4 58 18.5 62.3 24.5 62.8 46.9l9.2 0.3V203z"/><path d="M46.5 48.2C47 43 45.2 26.6 43 18c-0.8-3.4-8.9 11.5-9.2 22.4 -0.2 7.3 1.8 13.7 2.9 13.7 1.4-0.1 1.1-11.3 3.9-11.8C43 41.8 46.3 49.7 46.5 48.2z"/><path d="M64.4 90.3c2.1 3.4-3.1 25.3 4.5 33.7 2.6 2.9 3.2 3.9 3.2 5 0 0.8-7.6 0.9-8.7 5 -3.2 12.1 8.7 11.9 8.7 15.5v10.3c-17.8 3.6-25-19.7-26.3-18.7 -2.3 1.9-0.3 22.4-1.3 22.1 -6.2-1.5-14.2-12.6-15-17.1 -1.2-6.7 6.4-22 5.8-22.4 -0.6-0.3-7.9 13.4-10 12.9 -3.9-1-9.7-12.9-9.7-17.4 0-7.5 19.7-18.7 19.7-24.7 0-3.8-3.8-4.2-4.2-11.1 -0.2-2.6 0.7-4.8 2.6-6.3 2.6-2.1 15.1 0.2 15.8 0.5C51.9 78.9 58 80 64.4 90.3zM59.4 98c0.5-1.3 3.4-1.1-9.2-12.4 -4.3-3.8-13.5-4.4-14-1.6 -0.3 1.6 0.8 10 14.5 14.7C53 99.6 58.9 99.2 59.4 98z"/><path class="st1" d="M72.3 47.2l9.2-0.3C82 24.5 86.2 18.5 100.7 4c9.7 4.2 27.4 36.3 14.5 59.5 1.3 9.5 21.3 35.5 24.2 53.7 0.6 10-2.7 21.2-8.6 32.2 -1.6-2.7-3.9-5.3-6.5-7.7 1.6 4.5 3 8.8 3.7 12.6 -3.6 6.1-8 12-12.7 17.5 -2.6-2.9-5-8-7.3-13.9 -1.3 5.8 0 13.4-0.3 22 -11.6 11.5-24.6 20.2-35.5 23M105 41.9c2.9 0.5 2.5 11.8 3.9 11.8 1.1 0.1 3.1-6.4 2.9-13.7 -0.3-10.9-8.4-25.8-9.2-22.4 -2.1 8.7-3.9 25-3.4 30.3C99.3 49.5 102.7 41.5 105 41.9zM96.1 98.8c13.7-4.7 14.7-13.2 14.5-14.7 -0.5-2.8-9.7-2.2-14 1.6C83.9 96.9 86.8 96.7 87.4 98 87.9 99.2 93.8 99.6 96.1 98.8z"/></svg>