<?xml version="1.0" encoding="utf-8"?>
<!-- Generator: Adobe Illustrator 22.0.1, SVG Export Plug-In . SVG Version: 6.00 Build 0)  -->
<svg version="1.1" id="Layer_1" xmlns="http://www.w3.org/2000/svg" xmlns:xlink="http://www.w3.org/1999/xlink" x="0px" y="0px"
	 viewBox="0 0 52 52" style="enable-background:new 0 0 52 52;" xml:space="preserve">
<style type="text/css">
	.st0{fill:#231F20;}
</style>
<g>
	<g>
		<path class="st0" d="M35.6,14.4c0,6.5,0.1,13.1,0.4,19.6c0.7-0.2,1.4-0.4,2.1-0.6c-1.8-2.4-3.6-4.2-6.5-5.1
			c-1.7-0.5-3.5-0.8-5.3-1.1c-1.2-0.2-2.4-0.3-3.6-0.3c-1.8,0-2.5,0.5-3.5-1.2c-1-1.6-0.9-3.7,1.4-4.7c0.7-0.3,2.2,0,3,0
			c1.6,0,3.1,0.1,4.6-0.4c3.4-1.1,6.5-3.7,9-6.1c1-1-0.5-2.6-1.6-1.6c-2.2,2.1-4.7,4.2-7.5,5.3c-2.4,1-5,0.4-7.5,0.5
			c-3.3,0.2-4.1,2-4.2,5.1c-0.1,2.3,0.5,4.7,3,5.2c2.8,0.6,5.9,0,8.8,0.6c3.4,0.7,5.9,1.8,8,4.7c0.6,0.8,2.2,0.7,2.1-0.6
			c-0.3-6.5-0.5-13.1-0.4-19.6C37.8,13,35.6,13,35.6,14.4L35.6,14.4z"/>
	</g>
	<g>
		<path class="st0" d="M37.3,21.5c1.3,0,1.9,0.9,2,2.1c0.1,1.4-0.4,2.3-1.9,2.5c-1.4,0.2-0.8,2.4,0.6,2.2c1-0.1,2.3-0.7,3-1.6
			c0.7-0.9,0.6-2.3,0.5-3.4c-0.2-2.3-1.9-3.9-4.2-3.9C35.8,19.3,35.8,21.5,37.3,21.5L37.3,21.5z"/>
	</g>
	<g>
		<path class="st0" d="M23.8,20.3c0,2.4,0,4.8,0.2,7.2c0.1,1.4,2.3,1.4,2.3,0c-0.1-2.4-0.2-4.8-0.2-7.2
			C26.1,18.8,23.8,18.8,23.8,20.3L23.8,20.3z"/>
	</g>
	<g>
		<path class="st0" d="M20.1,28.6c0,1.6,0,3.3,0,4.9c0,1.4,2.3,1.5,2.3,0c0-1.6,0-3.3,0-4.9C22.4,27.2,20.1,27.2,20.1,28.6
			L20.1,28.6z"/>
	</g>
</g>
</svg>
